<?xml version="1.0" encoding="UTF-8" standalone="no"?>
<!-- Created with Inkscape (http://www.inkscape.org/) -->

<svg
   xmlns:dc="http://purl.org/dc/elements/1.1/"
   xmlns:cc="http://creativecommons.org/ns#"
   xmlns:rdf="http://www.w3.org/1999/02/22-rdf-syntax-ns#"
   xmlns:svg="http://www.w3.org/2000/svg"
   xmlns="http://www.w3.org/2000/svg"
   xmlns:sodipodi="http://sodipodi.sourceforge.net/DTD/sodipodi-0.dtd"
   xmlns:inkscape="http://www.inkscape.org/namespaces/inkscape"
   version="1.1"
   id="svg29"
   xml:space="preserve"
   width="48"
   height="48"
   viewBox="0 0 48 48"
   sodipodi:docname="Favicon.svg"
   inkscape:version="0.92.5 (2060ec1f9f, 2020-04-08)"><metadata
     id="metadata35"><rdf:RDF><cc:Work
         rdf:about=""><dc:format>image/svg+xml</dc:format><dc:type
           rdf:resource="http://purl.org/dc/dcmitype/StillImage" /><dc:title></dc:title></cc:Work></rdf:RDF></metadata><defs
     id="defs33"><clipPath
       clipPathUnits="userSpaceOnUse"
       id="clipPath45"><path
         d="M 0,360 H 792 V 0 H 0 Z"
         id="path43"
         inkscape:connector-curvature="0" /></clipPath></defs><sodipodi:namedview
     pagecolor="#ffffff"
     bordercolor="#666666"
     borderopacity="1"
     objecttolerance="10"
     gridtolerance="10"
     guidetolerance="10"
     inkscape:pageopacity="0"
     inkscape:pageshadow="2"
     inkscape:window-width="1872"
     inkscape:window-height="1049"
     id="namedview31"
     showgrid="false"
     inkscape:zoom="8.9566859"
     inkscape:cx="37.796102"
     inkscape:cy="25.416678"
     inkscape:window-x="48"
     inkscape:window-y="0"
     inkscape:window-maximized="1"
     inkscape:current-layer="g37" /><g
     id="g37"
     inkscape:groupmode="layer"
     inkscape:label="Mosaic_Fertilizantes_blk_5c_cmyk"
     transform="matrix(1.3333333,0,0,-1.3333333,0,48)"><rect
       style="opacity:1;fill:#ffffff;fill-opacity:1;stroke:none;stroke-width:0.33333334;stroke-opacity:1"
       id="rect815-6-3"
       width="36"
       height="36"
       x="1.7763568e-15"
       y="-36"
       rx="6"
       transform="scale(1,-1)" /><g
       id="g248"
       transform="matrix(0.11027163,0,0,0.11027163,-12.425122,2.8926783)"><g
         transform="translate(291.9966,169.8165)"
         id="g47"><path
           inkscape:connector-curvature="0"
           id="path49"
           style="fill:#b84b15;fill-opacity:1;fill-rule:nonzero;stroke:none"
           d="m 0,0 c -2.134,0.3 -40.284,-21.414 -40.284,-21.414 0,0 61.296,-12.76 150.481,-39.511 0,0 17.786,25.171 30.149,39.006 0,0 -51.581,9.624 -140.346,21.919" /></g><g
         transform="translate(221.3188,172.377)"
         id="g51"><path
           inkscape:connector-curvature="0"
           id="path53"
           style="fill:#005953;fill-opacity:1;fill-rule:nonzero;stroke:none"
           d="m 0,0 c 30.161,5.201 61.488,-0.848 61.488,-0.848 0,0 -49.496,-23.604 -95.935,-52.77 0,0 -38.899,11.671 -67.393,14.564 0,0 72.342,33.94 101.84,39.054" /></g><g
         transform="translate(327.9438,121.4004)"
         id="g55"><path
           inkscape:connector-curvature="0"
           id="path57"
           style="fill:#b2bb1d;fill-opacity:1;fill-rule:nonzero;stroke:none"
           d="m 0,0 c 0,0 28.861,-7.756 68.734,-21.199 0,0 -25.298,-37.407 -34.349,-55.098 0,0 -25.299,14.631 -73.079,35.643 0,0 10.169,10.825 38.694,40.654" /></g><g
         transform="translate(197.8413,115.0479)"
         id="g59"><path
           inkscape:connector-curvature="0"
           id="path61"
           style="fill:#c5a900;fill-opacity:1;fill-rule:nonzero;stroke:none"
           d="m 0,0 c 0,0 19.132,13.56 45.815,28.483 0,0 30.714,-6.156 75.626,-19.483 L 81.284,-29.761 c 0,0 -23.575,9.867 -43.505,17.077 C 17.847,-5.474 0,0 0,0" /></g></g></g></svg>